# Blender v2.76 (sub 0) OBJ File: ''
# www.blender.org
mtllib untitled.mtl
o trackfinal
v -0.009986 -0.000000 1.000000
v -0.009986 0.000000 -1.000000
v -1.009986 0.000000 -1.000000
v 1.147188 -0.000000 1.027719
v 1.000688 0.000000 -0.997408
v 2.404694 -0.000000 1.013939
v 2.147330 0.000000 -0.997818
v 3.644711 -0.000000 0.924652
v 3.277520 0.000000 -1.067707
v 4.862761 -0.000000 0.761862
v 4.387107 0.000000 -1.205145
v 6.054542 -0.000000 0.527836
v 5.472107 0.000000 -1.407951
v 7.215943 -0.000000 0.225098
v 6.528725 0.000000 -1.673716
v 8.343054 0.000000 -0.143602
v 7.553357 0.000000 -1.999815
v 9.432189 0.000000 -0.575294
v 8.542621 0.000000 -2.383413
v 10.479887 0.000000 -1.066803
v 9.493341 0.000000 -2.821501
v 11.482928 0.000000 -1.614769
v 10.402587 0.000000 -3.310888
v 12.438347 0.000000 -2.215662
v 11.267655 0.000000 -3.848229
v 13.343431 0.000000 -2.865805
v 12.086102 0.000000 -4.430050
v 14.195741 0.000000 -3.561380
v 12.855737 0.000000 -5.052754
v 14.993108 0.000000 -4.298467
v 13.574620 0.000000 -5.712637
v 15.854772 0.000000 -5.159111
v 14.297971 0.000000 -6.454218
v 17.086067 0.000000 -6.093979
v 15.661729 0.000000 -7.572158
v 18.466921 0.000000 -6.807926
v 17.175528 0.000000 -8.458146
v 19.947989 0.000000 -7.277843
v 18.801111 0.000000 -9.100844
v 21.513199 0.000000 -7.454168
v 20.695570 0.000000 -9.469650
v 23.135534 0.000000 -7.307546
v 22.696602 0.000000 -9.453297
v 24.747107 0.000000 -6.823010
v 24.707436 0.000000 -9.028360
v 26.276524 0.000000 -6.000048
v 26.643576 0.000000 -8.191092
v 27.492014 0.000000 -5.078674
v 28.419603 0.000000 -6.955386
v 28.316477 0.000000 -4.512763
v 29.448303 0.000000 -6.161693
v 29.140944 0.000000 -3.946850
v 30.272768 0.000000 -5.595779
v 29.963446 0.000000 -3.375353
v 31.230894 0.000000 -4.975156
v 30.946360 0.000000 -2.672215
v 32.508484 0.000000 -4.073303
v 31.856752 0.000000 -1.784758
v 33.604504 0.000000 -2.967432
v 32.586834 0.000000 -0.765626
v 34.479794 0.000000 -1.662066
v 33.122635 -0.000000 0.350521
v 35.113899 0.000000 -0.226012
v 33.457127 -0.000000 1.524889
v 35.495472 -0.000000 1.290996
v 33.590679 -0.000000 2.716736
v 33.531033 -0.000000 3.885712
v 35.503754 -0.000000 4.355409
v 33.292675 -0.000000 4.994077
v 35.155632 -0.000000 5.799300
v 32.895893 -0.000000 6.008639
v 34.603466 -0.000000 7.122951
v 32.364307 -0.000000 6.920078
v 33.995247 -0.000000 8.123784
v 31.776880 -0.000000 7.821130
v 33.387142 -0.000000 9.049466
v 31.175001 -0.000000 8.705456
v 32.764217 -0.000000 9.958071
v 30.559092 -0.000000 9.572832
v 32.126915 -0.000000 10.849360
v 29.929548 -0.000000 10.423035
v 31.475637 -0.000001 11.723120
v 29.286806 -0.000000 11.255859
v 30.810820 -0.000001 12.579136
v 28.631273 -0.000001 12.071104
v 30.132875 -0.000001 13.417204
v 27.963385 -0.000001 12.868586
v 29.442247 -0.000001 14.237133
v 27.283560 -0.000001 13.648123
v 28.739359 -0.000001 15.038731
v 26.592237 -0.000001 14.409554
v 28.031164 -0.000001 15.808207
v 25.214655 -0.000001 15.869501
v 26.389265 -0.000001 17.522491
v 23.358038 -0.000001 17.512964
v 24.353800 -0.000001 19.279257
v 21.345320 -0.000001 18.948420
v 22.151396 -0.000001 20.808756
v 19.199554 -0.000001 20.161306
v 19.807215 -0.000001 22.095371
v 16.945196 -0.000001 21.139578
v 17.347818 -0.000001 23.126287
v 14.607668 -0.000001 21.873888
v 14.800923 -0.000001 23.891565
v 12.213241 -0.000001 22.357576
v 12.195035 -0.000001 24.384230
v 9.788595 -0.000001 22.586840
v 9.559183 -0.000001 24.600361
v -30.211405 -0.000001 22.586840
v -30.440817 -0.000001 24.600361
v -31.211405 -0.000001 22.586840
v -31.440817 -0.000001 24.600361
v -32.211407 -0.000001 22.586840
v -32.461884 -0.000001 24.602673
v -33.526669 -0.000001 22.654217
v -33.560558 -0.000001 24.685490
v -34.828266 -0.000001 22.862926
v -36.098892 -0.000001 23.210358
v -35.696617 -0.000001 25.201637
v -37.323826 -0.000001 23.692278
v -36.709248 -0.000001 25.628565
v -38.488888 -0.000001 24.302885
v -37.669170 -0.000001 26.161617
v -39.580616 -0.000001 25.034897
v -38.565323 -0.000001 26.794411
v -40.586426 -0.000001 25.879627
v -39.387390 -0.000001 27.519421
v -41.494751 -0.000001 26.827093
v -40.125946 -0.000001 28.328053
v -42.706203 -0.000001 28.548935
v -42.214928 -0.000001 31.176540
v -45.284698 -0.000001 31.280603
v -45.237976 -0.000001 33.701160
v -48.129608 -0.000001 32.902851
v -48.746552 -0.000002 35.238922
v -51.291233 -0.000001 33.668839
v -52.522064 -0.000002 35.742393
v -54.519505 -0.000001 33.530430
v -56.267784 -0.000002 35.184200
v -57.562531 -0.000001 32.510521
v -59.692707 -0.000001 33.619938
v -60.186199 -0.000001 30.700325
v -62.534134 -0.000001 31.182878
v -62.192234 -0.000001 28.251352
v -64.577827 -0.000001 28.072704
v -63.433121 -0.000001 25.362738
v -65.674126 -0.000001 24.539162
v -63.822929 -0.000001 22.265158
v -65.748901 -0.000001 20.862091
v -63.343182 -0.000001 19.202330
v -62.043324 -0.000001 16.411907
v -62.937782 -0.000001 14.213383
v -60.035984 -0.000001 14.106989
v -58.580433 -0.000001 13.061278
v -59.441853 -0.000000 11.226927
v -57.729210 -0.000001 12.536480
v -58.590630 -0.000000 10.702122
v -56.877987 -0.000001 12.011677
v -57.123756 -0.000000 9.661625
v -54.096832 -0.000000 9.941372
v -53.163948 -0.000000 6.823826
v -50.171421 -0.000000 7.335667
v -49.009823 -0.000000 4.301350
v -46.069454 -0.000000 5.041660
v -44.686413 -0.000000 2.107304
v -41.815571 -0.000000 3.071098
v -40.219475 -0.000000 0.252777
v -37.435143 -0.000000 1.433781
v -35.635628 0.000000 -1.253109
v -32.954124 -0.000001 0.137489
v -30.961868 -0.000001 -2.403347
v -28.398994 -0.000001 -0.811939
v -26.225775 -0.000001 -3.192989
v -23.796432 -0.000001 -1.410774
v -21.455011 -0.000001 -3.619228
v -19.173422 -0.000001 -1.657299
v -16.677311 -0.000001 -3.681362
v -14.556672 -0.000001 -1.551868
v -11.920444 -0.000001 -3.380817
v -9.972972 -0.000001 -1.096863
v -7.211736 -0.000001 -2.721096
v -5.448634 -0.000001 -0.296692
v -2.578277 -0.000001 -1.707783
v -1.009601 -0.000001 1.001847
v -1.009986 -0.000000 1.000000
v 35.622757 -0.000000 2.835881
v -34.642986 -0.000001 24.885990
v -64.808380 -0.000001 17.329136
v -60.293686 -0.000001 11.752174
v 1.953548 -0.000001 -0.348476
vn 0.000000 1.000000 0.000000
usemtl Material.001
s off
f 1//1 2//1 3//1
f 1//1 4//1 5//1
f 4//1 6//1 7//1
f 6//1 8//1 9//1
f 8//1 10//1 11//1
f 10//1 12//1 13//1
f 12//1 14//1 15//1
f 14//1 16//1 17//1
f 16//1 18//1 19//1
f 18//1 20//1 21//1
f 20//1 22//1 23//1
f 22//1 24//1 25//1
f 24//1 26//1 27//1
f 26//1 28//1 29//1
f 28//1 30//1 31//1
f 30//1 32//1 33//1
f 32//1 34//1 35//1
f 34//1 36//1 37//1
f 36//1 38//1 39//1
f 38//1 40//1 41//1
f 40//1 42//1 43//1
f 42//1 44//1 45//1
f 44//1 46//1 47//1
f 47//1 46//1 48//1
f 49//1 48//1 50//1
f 51//1 50//1 52//1
f 53//1 52//1 54//1
f 55//1 54//1 56//1
f 57//1 56//1 58//1
f 59//1 58//1 60//1
f 61//1 60//1 62//1
f 63//1 62//1 64//1
f 65//1 64//1 66//1
f 66//1 67//1 68//1
f 67//1 69//1 70//1
f 69//1 71//1 72//1
f 71//1 73//1 74//1
f 73//1 75//1 76//1
f 75//1 77//1 78//1
f 77//1 79//1 80//1
f 79//1 81//1 82//1
f 81//1 83//1 84//1
f 83//1 85//1 86//1
f 85//1 87//1 88//1
f 87//1 89//1 90//1
f 89//1 91//1 92//1
f 91//1 93//1 94//1
f 93//1 95//1 96//1
f 95//1 97//1 98//1
f 97//1 99//1 100//1
f 99//1 101//1 102//1
f 101//1 103//1 104//1
f 104//1 103//1 105//1
f 106//1 105//1 107//1
f 108//1 107//1 109//1
f 110//1 109//1 111//1
f 112//1 111//1 113//1
f 114//1 113//1 115//1
f 116//1 115//1 117//1
f 117//1 118//1 119//1
f 118//1 120//1 121//1
f 120//1 122//1 123//1
f 122//1 124//1 125//1
f 124//1 126//1 127//1
f 126//1 128//1 129//1
f 128//1 130//1 131//1
f 131//1 130//1 132//1
f 133//1 132//1 134//1
f 135//1 134//1 136//1
f 137//1 136//1 138//1
f 139//1 138//1 140//1
f 141//1 140//1 142//1
f 143//1 142//1 144//1
f 145//1 144//1 146//1
f 147//1 146//1 148//1
f 149//1 148//1 150//1
f 150//1 151//1 152//1
f 152//1 151//1 153//1
f 153//1 154//1 155//1
f 154//1 156//1 157//1
f 156//1 158//1 159//1
f 159//1 158//1 160//1
f 161//1 160//1 162//1
f 163//1 162//1 164//1
f 165//1 164//1 166//1
f 167//1 166//1 168//1
f 169//1 168//1 170//1
f 171//1 170//1 172//1
f 173//1 172//1 174//1
f 175//1 174//1 176//1
f 177//1 176//1 178//1
f 179//1 178//1 180//1
f 181//1 180//1 182//1
f 183//1 182//1 184//1
f 185//1 1//1 3//1
f 2//1 1//1 5//1
f 5//1 4//1 7//1
f 7//1 6//1 9//1
f 9//1 8//1 11//1
f 11//1 10//1 13//1
f 13//1 12//1 15//1
f 15//1 14//1 17//1
f 17//1 16//1 19//1
f 19//1 18//1 21//1
f 21//1 20//1 23//1
f 23//1 22//1 25//1
f 25//1 24//1 27//1
f 27//1 26//1 29//1
f 29//1 28//1 31//1
f 31//1 30//1 33//1
f 33//1 32//1 35//1
f 35//1 34//1 37//1
f 37//1 36//1 39//1
f 39//1 38//1 41//1
f 41//1 40//1 43//1
f 43//1 42//1 45//1
f 45//1 44//1 47//1
f 49//1 47//1 48//1
f 51//1 49//1 50//1
f 53//1 51//1 52//1
f 55//1 53//1 54//1
f 57//1 55//1 56//1
f 59//1 57//1 58//1
f 61//1 59//1 60//1
f 63//1 61//1 62//1
f 65//1 63//1 64//1
f 186//1 65//1 66//1
f 186//1 66//1 68//1
f 68//1 67//1 70//1
f 70//1 69//1 72//1
f 72//1 71//1 74//1
f 74//1 73//1 76//1
f 76//1 75//1 78//1
f 78//1 77//1 80//1
f 80//1 79//1 82//1
f 82//1 81//1 84//1
f 84//1 83//1 86//1
f 86//1 85//1 88//1
f 88//1 87//1 90//1
f 90//1 89//1 92//1
f 92//1 91//1 94//1
f 94//1 93//1 96//1
f 96//1 95//1 98//1
f 98//1 97//1 100//1
f 100//1 99//1 102//1
f 102//1 101//1 104//1
f 106//1 104//1 105//1
f 108//1 106//1 107//1
f 110//1 108//1 109//1
f 112//1 110//1 111//1
f 114//1 112//1 113//1
f 116//1 114//1 115//1
f 187//1 116//1 117//1
f 187//1 117//1 119//1
f 119//1 118//1 121//1
f 121//1 120//1 123//1
f 123//1 122//1 125//1
f 125//1 124//1 127//1
f 127//1 126//1 129//1
f 129//1 128//1 131//1
f 133//1 131//1 132//1
f 135//1 133//1 134//1
f 137//1 135//1 136//1
f 139//1 137//1 138//1
f 141//1 139//1 140//1
f 143//1 141//1 142//1
f 145//1 143//1 144//1
f 147//1 145//1 146//1
f 149//1 147//1 148//1
f 188//1 149//1 150//1
f 188//1 150//1 152//1
f 189//1 152//1 153//1
f 189//1 153//1 155//1
f 155//1 154//1 157//1
f 157//1 156//1 159//1
f 161//1 159//1 160//1
f 163//1 161//1 162//1
f 165//1 163//1 164//1
f 167//1 165//1 166//1
f 169//1 167//1 168//1
f 171//1 169//1 170//1
f 173//1 171//1 172//1
f 175//1 173//1 174//1
f 177//1 175//1 176//1
f 179//1 177//1 178//1
f 181//1 179//1 180//1
f 183//1 181//1 182//1
f 190//1 183//1 184//1
